<?xml version="1.0" encoding="utf-8"?>
<!-- Generator: Adobe Illustrator 21.0.2, SVG Export Plug-In . SVG Version: 6.00 Build 0)  -->
<svg version="1.1" id="Layer_1" xmlns="http://www.w3.org/2000/svg" xmlns:xlink="http://www.w3.org/1999/xlink" x="0px" y="0px"
	 viewBox="0 0 478.3 215.3" style="enable-background:new 0 0 478.3 215.3;" xml:space="preserve">
<style type="text/css">
	.st0{fill:none;stroke:#000000;stroke-width:0.1;stroke-miterlimit:10;}
</style>
<path class="st0" d="M230.4,202.8H15.3c-1.6,0-2.8-1.3-2.8-2.8V15.7c0-1.6,1.3-2.8,2.8-2.8h215.2c1.6,0,2.8,1.3,2.8,2.8v184.3
	C233.3,201.5,232,202.8,230.4,202.8z"/>
<circle class="st0" cx="106.7" cy="57.1" r="9.9"/>
<circle class="st0" cx="142.7" cy="57.1" r="9.9"/>
<line class="st0" x1="96.7" y1="108.4" x2="152.7" y2="164.3"/>
<line class="st0" x1="152.7" y1="108.4" x2="96.7" y2="164.3"/>
<circle class="st0" cx="271.5" cy="38.6" r="8.5"/>
<path class="st0" d="M245.4,15.7v41.1h8.5V21.3h203.8v172.9H253.9V93.2h-8.5v106.7c0,1.6,1.3,2.8,2.8,2.8h215.2
	c1.6,0,2.8-1.3,2.8-2.8V15.7c0-1.6-1.3-2.8-2.8-2.8H248.3C246.7,12.8,245.4,14.1,245.4,15.7z"/>
<circle class="st0" cx="295.1" cy="38.6" r="9.9"/>
</svg>
